<svg id="visual" viewBox="0 0 900 600" width="900" height="600" xmlns="http://www.w3.org/2000/svg" xmlns:xlink="http://www.w3.org/1999/xlink" version="1.1"><rect x="0" y="0" width="900" height="600" fill="#FCAF3C"></rect><g fill="none" stroke="#CCCCCC" stroke-width="2"><circle r="73" cx="633" cy="478"></circle><circle r="3" cx="473" cy="513"></circle><circle r="69" cx="490" cy="295"></circle><circle r="17" cx="150" cy="28"></circle><circle r="71" cx="883" cy="65"></circle><circle r="8" cx="847" cy="255"></circle><circle r="12" cx="395" cy="8"></circle><circle r="42" cx="218" cy="433"></circle><circle r="68" cx="80" cy="195"></circle><circle r="22" cx="831" cy="579"></circle><circle r="5" cx="654" cy="273"></circle><circle r="23" cx="63" cy="535"></circle><circle r="69" cx="70" cy="375"></circle><circle r="18" cx="684" cy="46"></circle><circle r="32" cx="512" cy="128"></circle><circle r="37" cx="334" cy="244"></circle><circle r="28" cx="783" cy="413"></circle><circle r="31" cx="300" cy="591"></circle><circle r="66" cx="378" cy="393"></circle></g></svg>